<svg width="64" height="55" viewBox="0 0 64 55" fill="none" xmlns="http://www.w3.org/2000/svg">
<path fill-rule="evenodd" clip-rule="evenodd" d="M8.875 4.18143V8.36274H4.4375H0V31.6814V55H32H64V31.6814V8.36274H47.984H31.968L30.9527 7.52178C26.9012 4.16576 22.3057 1.91847 17.1875 0.79047C15.5545 0.430555 13.3574 0.181201 10.9688 0.0846932L8.875 0V4.18143ZM14.0033 4.01628C19.5175 4.69706 24.8432 7.12406 29.2188 10.9504L30.125 11.743V30.336V48.9291L29.3438 48.3615C27.3994 46.9487 24.7201 45.438 22.625 44.5732C20.0494 43.5101 16.5566 42.595 14.25 42.3788C13.8031 42.3371 13.2546 42.275 13.0312 42.2409L12.625 42.179V23.0323C12.625 7.58794 12.6559 3.88557 12.7845 3.88557C12.8723 3.88557 13.4208 3.94439 14.0033 4.01628ZM8.875 29.0075V45.9213H10.6811C15.0066 45.9213 19.0941 46.8956 23.0491 48.8691C24.1709 49.4289 26.0483 50.5553 26.625 51.0147L26.9375 51.2635L15.3438 51.2663L3.75 51.269V31.6814V12.0937H6.3125H8.875V29.0075ZM60.25 31.6814V51.269H47.0625H33.875V31.6814V12.0937H47.0625H60.25V31.6814ZM38.7084 18.8924C38.6625 18.938 38.625 19.7774 38.625 20.7579V22.5405H47.125H55.625V20.675V18.8095H47.2084C42.5791 18.8095 38.7541 18.8468 38.7084 18.8924ZM38.7084 26.1057C38.6625 26.1512 38.625 26.9907 38.625 27.9712V29.7537H47.125H55.625V27.8882V26.0227H47.2084C42.5791 26.0227 38.7541 26.06 38.7084 26.1057ZM38.625 35.1014V36.9669H47.125H55.625V35.1014V33.236H47.125H38.625V35.1014ZM38.625 42.3147V44.1802H47.125H55.625V42.3147V40.4492H47.125H38.625V42.3147Z" fill="#AB69F7"/>
</svg>
