<svg width="16" height="16" viewBox="0 0 16 16" fill="none" xmlns="http://www.w3.org/2000/svg">
<path fill-rule="evenodd" clip-rule="evenodd" d="M0.485981 0.0286118C0.21357 0.101028 0 0.37964 0 0.662572C0 0.76324 0.0470655 0.919645 0.106337 1.01601C0.132262 1.05816 1.70649 2.64708 3.60462 4.54698L7.05579 8.00132L3.59606 11.4651C1.6932 13.3701 0.119065 14.9583 0.0979812 14.9943C0.0459252 15.0831 0 15.2459 0 15.3416C0 15.4509 0.0644486 15.6441 0.129308 15.7292C0.284654 15.9331 0.548878 16.0377 0.782168 15.9876C1.01204 15.9383 0.835234 16.1069 4.52804 12.4161L8 8.94603L11.472 12.4161C15.1648 16.1069 14.988 15.9383 15.2178 15.9876C15.4484 16.0371 15.7172 15.9307 15.8707 15.7292C15.9356 15.6441 16 15.4509 16 15.3416C16 15.2459 15.9541 15.0831 15.902 14.9943C15.8809 14.9583 14.3068 13.3701 12.4039 11.4651L8.94421 8.00132L12.3954 4.54698C14.2935 2.64708 15.8677 1.05816 15.8937 1.01601C15.9956 0.850259 16.0226 0.663657 15.9707 0.483674C15.8791 0.16602 15.557 -0.041766 15.2404 0.0124758C15.175 0.0236756 15.0816 0.0515723 15.0327 0.0744582C14.9621 0.107553 14.2315 0.828195 11.4719 3.58648L7.99994 7.05687L4.53736 3.59598C2.63293 1.69249 1.04484 0.117369 1.00828 0.0956987C0.927308 0.0477206 0.744972 -0.00164094 0.654953 4.18452e-05C0.618561 0.000714958 0.542523 0.0135602 0.485981 0.0286118Z" fill="#AB69F6"/>
</svg>
