<svg width="78" height="55" viewBox="0 0 78 55" fill="none" xmlns="http://www.w3.org/2000/svg">
<path fill-rule="evenodd" clip-rule="evenodd" d="M36.9509 0.141906C32.4119 0.799026 28.7817 3.89919 27.399 8.29921C26.8837 9.93845 26.8828 13.0112 27.3968 14.657C28.9449 19.6128 33.3467 22.838 38.5746 22.8467C40.5826 22.85 41.821 22.5686 43.6483 21.6936C46.0864 20.5262 47.7353 18.9021 48.9766 16.445C49.9054 14.6072 50.1764 13.2749 50.09 10.974C50.0341 9.49023 49.9401 8.89608 49.6061 7.92077C49.0149 6.19358 48.1139 4.76384 46.7842 3.44264C44.9121 1.58254 42.7016 0.502179 40.019 0.136154C38.6784 -0.0467076 38.2487 -0.0459504 36.9509 0.141906ZM41.4393 2.99366C44.1892 3.92901 46.357 6.08989 47.2438 8.77937C47.7191 10.2215 47.7558 12.6238 47.3218 13.9001C46.2109 17.1668 43.9497 19.2943 40.7147 20.1163C37.7623 20.8667 34.6568 20.0544 32.3569 17.9305C31.1562 16.8218 30.465 15.7646 29.9028 14.1779C29.3813 12.7057 29.3535 10.4057 29.839 8.90471C30.8083 5.90794 33.6557 3.3176 36.6422 2.71559C37.8814 2.46582 40.2995 2.60599 41.4393 2.99366ZM60.6354 8.07109C57.5521 8.76302 54.8788 11.2009 53.9115 14.2028C53.5397 15.3571 53.4646 17.803 53.7674 18.8955C54.1803 20.3842 54.997 21.7766 56.117 22.9002C57.3545 24.142 58.1943 24.6744 59.7293 25.1904C62.0376 25.9664 64.3545 25.7879 66.6649 24.6562C72.7259 21.6876 73.29 13.2573 67.6825 9.45042C65.6847 8.0941 62.9327 7.5555 60.6354 8.07109ZM13.5701 8.68567C11.2968 9.17552 9.21155 10.5756 7.93821 12.4673C5.53443 16.0383 6.01082 20.6682 9.09241 23.6853C10.6822 25.2417 13.272 26.3076 15.4635 26.3076C19.2575 26.3076 22.9072 23.6208 24.093 19.9551C24.5729 18.4713 24.5427 16.165 24.0241 14.6819C23.4801 13.1264 22.7881 12.0569 21.6081 10.948C19.4333 8.9038 16.4518 8.06473 13.5701 8.68567ZM64.4545 10.662C65.616 11.004 66.414 11.5046 67.3281 12.4651C70.3503 15.64 69.3152 20.6753 65.2522 22.5646C62.5975 23.799 59.1789 22.9582 57.4013 20.6337C56.4485 19.3877 56.15 18.4533 56.1456 16.7005C56.1421 15.307 56.1807 15.1053 56.6302 14.1614C57.4252 12.4928 58.928 11.1926 60.7115 10.6307C61.5761 10.3584 63.4767 10.3743 64.4545 10.662ZM18.1297 11.5775C19.9602 12.4434 21.0827 13.7283 21.6608 15.6196C22.5717 18.5997 21.0856 21.8167 18.1714 23.1726C17.3088 23.5739 16.9144 23.6623 15.7682 23.7115C13.5994 23.8046 12.02 23.1524 10.5332 21.5495C8.40485 19.2554 8.40485 15.508 10.5332 13.2139C12.0279 11.6025 13.4897 10.9932 15.6921 11.0632C16.9392 11.1028 17.2764 11.174 18.1297 11.5775ZM37.1734 24.4458C32.5091 24.9031 28.0426 26.834 24.7859 29.801L23.7482 30.7463L22.2721 30.0524C20.4734 29.2071 19.2438 28.8323 17.4456 28.5815C10.2967 27.5844 3.15624 31.9713 0.811112 38.8013C0.189524 40.6113 0 42.1509 0 45.3887C0 48.3682 0.00152349 48.382 0.425666 49.1887C0.735547 49.778 1.0535 50.1226 1.59419 50.4549L2.33705 50.9113L10.0624 50.9545L17.7876 50.9974L17.8865 51.6116C18.0282 52.492 18.4697 53.2688 19.2019 53.9259C20.4955 55.0873 18.8555 54.9984 39.0016 54.9984C59.1478 54.9984 57.5078 55.0873 58.8014 53.9259C59.6683 53.1479 60.0563 52.3338 60.145 51.1082L60.2181 50.0942L67.8539 50.0474C73.282 50.0143 75.6058 49.9493 75.8916 49.8228C76.5578 49.5279 77.4245 48.6808 77.7192 48.0365C77.9568 47.5166 77.997 47.0046 77.9999 44.4599C78.0036 41.2412 77.8145 39.7046 77.1919 37.893C75.6044 33.2741 71.9262 29.6982 67.2589 28.2361C63.0471 26.9167 58.1214 27.5027 54.4768 29.7566L53.7327 30.2168L52.7892 29.4215C48.4717 25.7823 42.6052 23.9131 37.1734 24.4458ZM42.143 27.1494C49.7557 28.4492 55.7332 34.1617 57.296 41.6305C57.5634 42.908 57.6342 43.8716 57.6868 46.9406C57.7566 51.0236 57.6737 51.6876 57.0309 52.1898C56.635 52.4994 56.5559 52.5007 39.0016 52.5007C21.5553 52.5007 21.366 52.4976 20.9797 52.1956C20.3258 51.6845 20.2629 51.1935 20.3205 47.0512C20.3654 43.8164 20.4274 42.9384 20.7039 41.6305C22.2721 34.2121 28.207 28.4957 35.7261 27.1618C37.3701 26.8701 40.4721 26.8642 42.143 27.1494ZM65.8064 30.416C70.3443 31.565 73.9413 35.1542 75.1062 39.6959C75.3653 40.706 75.4133 41.3819 75.4133 44.0177C75.4133 46.2459 75.3609 47.1941 75.2305 47.3237C75.0934 47.4599 73.1973 47.5054 67.6351 47.5054H60.2225L60.1328 44.8941C60.0027 41.1092 59.4144 38.7874 57.7972 35.6762C57.403 34.9175 56.7195 33.7973 56.2786 33.1866L55.4769 32.0766L55.9765 31.7699C58.6516 30.127 62.5464 29.5907 65.8064 30.416ZM18.6172 31.3686C19.9049 31.6932 21.9384 32.5432 21.9384 32.7567C21.9384 32.8019 21.6566 33.2511 21.312 33.7552C20.414 35.069 19.1247 37.8198 18.6629 39.4068C18.0712 41.4401 17.8268 43.3731 17.8259 46.0295L17.825 48.4136H10.3784C4.01869 48.4136 2.90486 48.3812 2.74642 48.1915C2.60824 48.0261 2.57731 47.0891 2.6253 44.5207C2.68289 41.4422 2.72722 40.9581 3.03832 40.0123C4.52191 35.5018 8.12407 32.2345 12.7212 31.2294C14.2897 30.8865 16.954 30.9495 18.6172 31.3686Z" fill="#AB69F7"/>
</svg>
