<svg width="63" height="55" viewBox="0 0 63 55" fill="none" xmlns="http://www.w3.org/2000/svg">
<path fill-rule="evenodd" clip-rule="evenodd" d="M28.6639 0.0398175C26.7858 0.377303 25.1769 1.52969 24.3725 3.11379C23.7424 4.35439 23.7412 4.37589 23.7412 14.231C23.7412 19.2847 23.7139 23.4194 23.6804 23.4194C23.6469 23.4194 22.3804 22.8016 20.8658 22.0466L18.1122 20.6737L18.6632 19.9274C19.8938 18.2603 20.4317 16.6508 20.4317 14.6352C20.4317 10.5189 17.7237 7.11029 13.6407 6.08727C13.2605 5.99194 12.3898 5.92437 11.619 5.93026C9.14702 5.94943 7.32008 6.73215 5.52463 8.54144C4.378 9.69703 3.61129 11.0032 3.24578 12.4238C2.49715 15.3328 3.29365 18.3945 5.37744 20.6184C5.68327 20.9447 5.91131 21.23 5.88411 21.2524C5.85704 21.2746 5.48328 21.5282 5.05377 21.8159C2.72901 23.3727 0.976026 25.9462 0.279459 28.8251C0.13227 29.4335 0.0717201 30.5818 0.0252003 33.6467C-0.0269807 37.0833 -0.00642823 37.8019 0.166114 38.5764C0.533103 40.2229 1.60207 41.6243 3.08406 42.4017L3.91982 42.8402L3.95428 48.2937C3.98775 53.5821 3.99637 53.7573 4.24251 54.0862C4.38206 54.2727 4.64912 54.5393 4.83594 54.6786C5.16736 54.9258 5.33141 54.9328 11.5355 54.966L17.8955 55L18.4464 54.7203C18.7736 54.5543 19.0986 54.2657 19.2464 54.0105C19.4903 53.5894 19.4961 53.3645 19.5294 43.0456C19.5481 37.2514 19.5859 32.5107 19.6134 32.5107C19.6407 32.5107 21.1432 33.2432 22.9522 34.1386L26.2413 35.7664L27.6681 35.7652C28.9893 35.764 29.1483 35.7377 29.8213 35.4094C30.5233 35.067 31.4162 34.2909 31.9255 33.5808L32.1714 33.2381L35.447 33.2737L38.7226 33.3093L35.1701 43.0601C33.2162 48.4232 31.6176 52.9445 31.6176 53.1075C31.6176 53.5787 31.9212 54.1793 32.3349 54.5269C33.078 55.151 34.1285 55.069 34.8076 54.334C35.0119 54.1127 36.2906 50.7594 38.8775 43.6604L42.6494 33.3093L43.3177 33.2764L43.9859 33.2435L47.6665 43.2891C49.6909 48.8142 51.4748 53.5915 51.6308 53.9052C52.0029 54.6529 52.7665 55.0591 53.5543 54.928C54.2386 54.8141 54.9415 54.1088 55.0583 53.4186C55.1434 52.9153 55.0649 52.6922 49.1798 36.7257L47.9031 33.2621L53.1441 33.2163C57.5313 33.178 58.4751 33.1388 58.9387 32.9756C60.8938 32.2875 62.3276 30.744 62.8016 28.8172C62.9769 28.1049 63 26.6804 63 16.6009C63 6.52145 62.9769 5.09693 62.8016 4.38462C62.328 2.45959 60.9117 0.933102 58.9387 0.221275C58.4401 0.0414143 56.9199 0.0196687 43.6783 0.00296034C35.5896 -0.00711384 28.8332 0.00934922 28.6639 0.0398175ZM57.9154 3.77034C58.3869 3.94811 58.9336 4.47823 59.1385 4.95639C59.2783 5.28245 59.308 7.32038 59.308 16.589C59.308 24.2299 59.2661 27.9369 59.177 28.1721C58.9989 28.6428 58.4679 29.1885 57.9889 29.393C57.6613 29.533 55.4247 29.5622 45.0357 29.5622H32.4784L34.8785 24.7714C37.455 19.6288 37.5177 19.4508 37.0332 18.6576C36.6889 18.0936 36.0999 17.769 35.4201 17.7685C34.3242 17.7677 34.2419 17.8771 31.9868 22.3353C30.8699 24.5433 29.9211 26.3843 29.8781 26.4266C29.8352 26.4688 29.2675 26.2392 28.6167 25.9165L27.4333 25.3297V15.3026V5.27544L27.7167 4.74041C27.9104 4.37479 28.1697 4.11593 28.5359 3.92255L29.0719 3.63962H43.3204C53.0884 3.63962 57.6779 3.68065 57.9154 3.77034ZM32.9226 7.94424C31.7607 8.29143 31.2779 9.77148 31.9975 10.7804C32.5312 11.5286 32.1181 11.5024 43.3993 11.5024C53.2342 11.5024 53.7321 11.4917 54.141 11.2729C54.7527 10.9455 55.1764 10.0894 55.0618 9.41237C54.9524 8.76566 54.3829 8.10752 53.7906 7.94326C53.2303 7.78797 33.4427 7.78895 32.9226 7.94424ZM12.4665 9.65661C15.2438 10.1106 17.0644 12.5673 16.6964 15.3644C16.5614 16.39 16.1101 17.2898 15.3114 18.1258C12.47 21.0995 7.37878 19.4685 6.74129 15.3803C6.33836 12.7967 8.06292 10.2743 10.6103 9.72172C11.5668 9.51409 11.5903 9.51336 12.4665 9.65661ZM43.0427 14.8089C42.0907 15.0017 41.5656 15.6442 41.5656 16.6164C41.5656 17.2873 41.8896 17.8639 42.4519 18.1937C42.8633 18.4349 43.0686 18.4437 48.2933 18.4437C54.3156 18.4437 54.2434 18.4531 54.7595 17.6085C55.1604 16.9524 55.1866 16.4907 54.8603 15.8361C54.3115 14.7355 54.4572 14.761 48.601 14.7378C45.792 14.7267 43.2907 14.7587 43.0427 14.8089ZM42.6895 21.8002C41.9957 22.1072 41.5669 22.7297 41.5561 23.4455C41.5461 24.0995 41.8288 24.6641 42.3534 25.0375L42.7553 25.3237L47.8626 25.3616C50.6716 25.3825 53.2093 25.3647 53.5018 25.3221C54.222 25.217 54.9393 24.5136 55.0614 23.7925C55.1764 23.1123 54.754 22.2571 54.141 21.9289C53.7401 21.7144 53.3589 21.7 48.2953 21.708C45.3159 21.7128 42.7934 21.7542 42.6895 21.8002ZM15.7341 23.7285C16.8491 24.0857 28.6148 30.0035 28.8356 30.3183C29.1485 30.764 29.0806 31.2341 28.6332 31.7213C27.9242 32.4934 27.8534 32.4717 22.6584 29.8834C19.5694 28.3443 17.9395 27.5966 17.6743 27.5968C17.1584 27.597 16.5002 27.9394 16.1812 28.3733C15.929 28.7167 15.9258 28.8334 15.8648 39.9832L15.8033 51.2463L11.7113 51.2786L7.61925 51.311V46.0819C7.61925 40.3623 7.63193 40.4705 6.88466 39.8428C6.64911 39.6449 6.29405 39.5016 5.92645 39.4563C4.99938 39.3417 4.2937 38.9244 3.96474 38.2964C3.68734 37.7669 3.68107 37.676 3.68316 34.1807C3.68562 30.2374 3.77571 29.4841 4.40631 28.1389C5.50014 25.8054 7.3677 24.2579 9.89602 23.5899C10.8179 23.3463 14.8392 23.4418 15.7341 23.7285Z" fill="#AB69F7"/>
</svg>
