<svg width="50" height="50" viewBox="0 0 50 50" fill="none" xmlns="http://www.w3.org/2000/svg">
<path d="M25 0L28.784 7.19771L35.1684 2.16136L35.6977 10.2759L43.5786 8.27173L40.7617 15.9L48.7764 17.2746L43.1003 23.0976L49.863 27.6132L42.3092 30.6241L46.6506 37.5L38.5252 37.1782L39.6946 45.2254L32.4026 41.6265L30.1978 49.4537L25 43.2L19.8022 49.4537L17.5974 41.6265L10.3054 45.2254L11.4748 37.1782L3.34937 37.5L7.69077 30.6241L0.136953 27.6132L6.8997 23.0976L1.22359 17.2746L9.23834 15.9L6.42138 8.27173L14.3023 10.2759L14.8316 2.16136L21.216 7.19771L25 0Z" fill="#AB69F7"/>
<path d="M12.253 25.249H15.212V26.47H12.253V25.249ZM19.6827 26.822C19.6827 26.58 19.6351 26.3637 19.5397 26.173C19.4444 25.9823 19.2757 25.821 19.0337 25.689C18.7991 25.557 18.4801 25.458 18.0767 25.392C17.6807 25.326 17.1784 25.293 16.5697 25.293C16.6504 24.589 16.7127 23.9217 16.7567 23.291C16.8007 22.653 16.8374 22.015 16.8667 21.377H20.7607V22.499H17.9997C17.9924 22.6237 17.9814 22.7667 17.9667 22.928C17.9594 23.082 17.9484 23.2397 17.9337 23.401C17.9264 23.5623 17.9154 23.7163 17.9007 23.863C17.8861 24.0097 17.8714 24.1343 17.8567 24.237C18.9421 24.2957 19.7414 24.545 20.2547 24.985C20.7754 25.4177 21.0357 26.0117 21.0357 26.767C21.0357 27.1117 20.9771 27.4307 20.8597 27.724C20.7424 28.0173 20.5627 28.2703 20.3207 28.483C20.0787 28.6957 19.7744 28.8643 19.4077 28.989C19.0411 29.1063 18.6121 29.165 18.1207 29.165C17.9227 29.165 17.7211 29.1503 17.5157 29.121C17.3104 29.0917 17.1124 29.055 16.9217 29.011C16.7384 28.9743 16.5734 28.934 16.4267 28.89C16.2801 28.846 16.1701 28.8057 16.0967 28.769L16.3497 27.647C16.5037 27.7203 16.7237 27.801 17.0097 27.889C17.3031 27.9697 17.6587 28.01 18.0767 28.01C18.3627 28.01 18.6084 27.9807 18.8137 27.922C19.0191 27.856 19.1841 27.768 19.3087 27.658C19.4407 27.548 19.5361 27.4233 19.5947 27.284C19.6534 27.1373 19.6827 26.9833 19.6827 26.822ZM27.4967 25.183C27.4967 26.4663 27.262 27.4527 26.7927 28.142C26.3233 28.824 25.6743 29.165 24.8457 29.165C24.017 29.165 23.368 28.824 22.8987 28.142C22.4293 27.4527 22.1947 26.4663 22.1947 25.183C22.1947 24.545 22.2533 23.9803 22.3707 23.489C22.4953 22.9903 22.6713 22.5723 22.8987 22.235C23.1333 21.8977 23.412 21.641 23.7347 21.465C24.0647 21.289 24.435 21.201 24.8457 21.201C25.6743 21.201 26.3233 21.5457 26.7927 22.235C27.262 22.917 27.4967 23.8997 27.4967 25.183ZM26.1217 25.183C26.1217 24.787 26.0997 24.4167 26.0557 24.072C26.0117 23.7273 25.9383 23.4303 25.8357 23.181C25.7403 22.9243 25.612 22.7227 25.4507 22.576C25.2893 22.4293 25.0877 22.356 24.8457 22.356C24.6037 22.356 24.3983 22.4293 24.2297 22.576C24.0683 22.7227 23.9363 22.9243 23.8337 23.181C23.7383 23.4303 23.6687 23.7273 23.6247 24.072C23.588 24.4167 23.5697 24.787 23.5697 25.183C23.5697 25.579 23.588 25.9493 23.6247 26.294C23.6687 26.6387 23.7383 26.9393 23.8337 27.196C23.9363 27.4453 24.0683 27.6433 24.2297 27.79C24.3983 27.9367 24.6037 28.01 24.8457 28.01C25.0877 28.01 25.2893 27.9367 25.4507 27.79C25.612 27.6433 25.7403 27.4453 25.8357 27.196C25.9383 26.9393 26.0117 26.6387 26.0557 26.294C26.0997 25.9493 26.1217 25.579 26.1217 25.183ZM32.1866 23.291C32.1866 23.9583 32.0143 24.4717 31.6696 24.831C31.3323 25.1903 30.8886 25.37 30.3386 25.37C30.0673 25.37 29.818 25.326 29.5906 25.238C29.3633 25.1427 29.169 25.007 29.0076 24.831C28.8463 24.655 28.718 24.4387 28.6226 24.182C28.5346 23.918 28.4906 23.621 28.4906 23.291C28.4906 22.6163 28.6593 22.103 28.9966 21.751C29.3413 21.3917 29.7886 21.212 30.3386 21.212C30.8886 21.212 31.3323 21.3917 31.6696 21.751C32.0143 22.103 32.1866 22.6163 32.1866 23.291ZM31.1416 23.291C31.1416 22.9023 31.0683 22.6127 30.9216 22.422C30.7823 22.224 30.588 22.125 30.3386 22.125C30.0893 22.125 29.895 22.224 29.7556 22.422C29.6163 22.6127 29.5466 22.9023 29.5466 23.291C29.5466 23.6797 29.6163 23.973 29.7556 24.171C29.895 24.3617 30.0893 24.457 30.3386 24.457C30.588 24.457 30.7823 24.3617 30.9216 24.171C31.0683 23.973 31.1416 23.6797 31.1416 23.291ZM34.4196 21.377H35.6846L31.3836 29H30.1186L34.4196 21.377ZM37.3236 27.097C37.3236 27.7643 37.1513 28.2777 36.8066 28.637C36.4693 28.9963 36.0256 29.176 35.4756 29.176C35.2043 29.176 34.955 29.1283 34.7276 29.033C34.5003 28.945 34.306 28.813 34.1446 28.637C33.9833 28.461 33.855 28.2447 33.7596 27.988C33.6716 27.724 33.6276 27.427 33.6276 27.097C33.6276 26.4223 33.7963 25.909 34.1336 25.557C34.4783 25.1977 34.9256 25.018 35.4756 25.018C36.0256 25.018 36.4693 25.1977 36.8066 25.557C37.1513 25.909 37.3236 26.4223 37.3236 27.097ZM36.2786 27.097C36.2786 26.7083 36.2053 26.4187 36.0586 26.228C35.9193 26.03 35.725 25.931 35.4756 25.931C35.2263 25.931 35.032 26.03 34.8926 26.228C34.7533 26.4187 34.6836 26.7083 34.6836 27.097C34.6836 27.4857 34.7533 27.779 34.8926 27.977C35.032 28.1677 35.2263 28.263 35.4756 28.263C35.725 28.263 35.9193 28.1677 36.0586 27.977C36.2053 27.779 36.2786 27.4857 36.2786 27.097Z" fill="#242424"/>
</svg>
