<svg width="21" height="20" viewBox="0 0 21 20" fill="none" xmlns="http://www.w3.org/2000/svg">
<path d="M10.0139 3.44539e-08C8.03611 3.44539e-08 6.10271 0.58649 4.45822 1.6853C2.81373 2.78412 1.532 4.3459 0.775125 6.17317C0.0182489 8.00043 -0.179784 10.0111 0.206068 11.9509C0.59192 13.8907 1.54433 15.6725 2.94285 17.0711C4.34138 18.4696 6.12321 19.422 8.06302 19.8079C10.0028 20.1937 12.0135 19.9957 13.8408 19.2388C15.668 18.4819 17.2298 17.2002 18.3286 15.5557C19.4274 13.9112 20.0139 11.9778 20.0139 10C20.014 8.68675 19.7554 7.38634 19.2529 6.17304C18.7504 4.95973 18.0138 3.8573 17.0852 2.92869C16.1566 2.00008 15.0542 1.26349 13.8409 0.760983C12.6276 0.258474 11.3272 -0.000108979 10.0139 3.44539e-08ZM13.1934 15.1525C13.156 15.2458 13.099 15.33 13.0264 15.3996C12.9537 15.4691 12.8671 15.5223 12.7722 15.5556C12.6773 15.5889 12.5764 15.6015 12.4762 15.5926C12.3761 15.5837 12.279 15.5535 12.1914 15.504L9.47676 13.3946L7.73444 15.002C7.69401 15.0319 7.64672 15.0511 7.59692 15.0579C7.54711 15.0647 7.4964 15.0589 7.44944 15.0409L7.78344 12.0525L7.79413 12.061L7.80096 12.002C7.80096 12.002 12.686 7.55445 12.885 7.36496C13.0864 7.17596 13.02 7.13496 13.02 7.13496C13.0314 6.90443 12.6584 7.13496 12.6584 7.13496L6.18592 11.299L3.49043 10.381C3.49043 10.381 3.07643 10.2325 3.03743 9.906C2.99643 9.582 3.50392 9.406 3.50392 9.406L14.2209 5.14849C14.2209 5.14849 15.1019 4.75597 15.1019 5.406L13.1934 15.1525Z" fill="#242424"/>
</svg>
