<svg width="21" height="20" viewBox="0 0 21 20" fill="none" xmlns="http://www.w3.org/2000/svg">
<path d="M13.0869 0H6.95142C1.34723 0 0.013916 1.33331 0.013916 6.92706V13.0625C0.013916 18.6666 1.33686 20 6.94098 20H13.0764C18.6806 20 20.0139 18.6771 20.0139 13.0729V6.9375C20.0139 1.33331 18.691 0 13.0869 0ZM16.1597 14.2708H14.7014C14.1494 14.2708 13.9827 13.8229 12.9931 12.8333C12.1285 12 11.7639 11.8958 11.5452 11.8958C11.2431 11.8958 11.1597 11.9791 11.1597 12.3958V13.7083C11.1597 14.0625 11.0452 14.2708 10.1181 14.2708C9.21849 14.2104 8.34611 13.9371 7.5728 13.4735C6.79949 13.0098 6.14737 12.3691 5.67017 11.6041C4.53727 10.194 3.74902 8.53906 3.36811 6.77081C3.36811 6.55206 3.45142 6.35413 3.86811 6.35413H5.32642C5.70142 6.35413 5.83686 6.52081 5.98267 6.90625C6.69098 8.98956 7.89936 10.8021 8.38892 10.8021C8.57642 10.8021 8.65973 10.7188 8.65973 10.25V8.10413C8.59723 7.125 8.07642 7.04163 8.07642 6.6875C8.08327 6.59407 8.12628 6.50699 8.19629 6.44475C8.26631 6.3825 8.35782 6.35 8.45142 6.35413H10.7431C11.0556 6.35413 11.1597 6.51038 11.1597 6.88538V9.78125C11.1597 10.0938 11.2952 10.1979 11.3889 10.1979C11.5764 10.1979 11.7222 10.0938 12.066 9.75C12.8047 8.84918 13.4082 7.84559 13.8577 6.77081C13.9035 6.64149 13.9905 6.53074 14.1052 6.4555C14.22 6.38025 14.3562 6.34465 14.4931 6.35413H15.9514C16.3889 6.35413 16.4827 6.57288 16.3889 6.88538C15.8583 8.07369 15.2018 9.20168 14.4306 10.25C14.2744 10.4896 14.2119 10.6146 14.4306 10.8958C14.5764 11.1146 15.0869 11.5416 15.4306 11.9479C15.9306 12.4466 16.3458 13.0237 16.6597 13.6562C16.7847 14.0625 16.5764 14.2708 16.1597 14.2708Z" fill="#242424"/>
</svg>
